# Blender v2.81 (sub 16) OBJ File: 'dustlevel.blend'
# www.blender.org
mtllib dustlevel.mtl
o Plane
v -18.500000 0.000000 14.958055
v -18.500000 0.000000 -14.958055
v -18.500000 0.100000 14.958055
v -18.500000 0.100000 -14.958055
v -19.500000 0.100000 14.958055
v -19.500000 0.100000 -14.958055
v -13.500000 0.000000 14.958055
v -13.500000 0.000000 -14.958055
v -13.500000 0.100000 14.958055
v -13.500000 0.100000 -14.958055
v -12.500000 0.100000 14.958055
v -12.500000 0.100000 -14.958055
v -16.000000 0.000000 14.958055
v -16.000000 0.000000 -14.958055
v -19.500000 6.100000 14.958055
v -19.500000 6.100000 -14.958055
v -12.500000 5.695655 14.958055
v -12.500000 5.695655 -14.958055
v -18.500000 0.000000 -2.493009
v -18.500000 0.000000 2.493009
v -18.500000 0.100000 -2.493009
v -18.500000 0.100000 2.493009
v -19.500000 0.100000 -2.493009
v -19.500000 0.100000 2.493009
v -16.000000 0.000000 2.493009
v -16.000000 0.000000 -2.493009
v -13.500000 0.000000 -2.493009
v -13.500000 0.000000 2.493009
v -13.500000 0.100000 -2.493009
v -13.500000 0.100000 2.493009
v -12.500000 0.100000 -2.493009
v -12.500000 0.100000 2.493009
v -19.500000 6.100000 -2.493009
v -19.500000 6.100000 2.493009
v -12.500000 5.695655 -2.493009
v -12.500000 5.695655 2.493009
v -18.500000 0.000000 19.445471
v -18.500000 0.000000 -19.445471
v -18.500000 0.100000 19.445471
v -18.500000 0.100000 -19.445471
v -19.500000 0.100000 19.445471
v -19.500000 0.100000 -19.445471
v -13.500000 0.000000 19.445471
v -13.500000 0.000000 -19.445471
v -13.500000 0.100000 19.445471
v -13.500000 0.100000 -19.445471
v -12.500000 0.100000 19.445471
v -12.500000 0.100000 -19.445471
v -16.000000 0.000000 19.445471
v -16.000000 0.000000 -19.445471
v -19.500000 6.100000 19.445471
v -19.500000 6.100000 -19.445471
v -12.500000 6.100000 19.445471
v -12.500000 6.100000 -19.445471
v -2.500000 0.100000 14.958055
v -2.500000 0.100000 -14.958055
v -2.500000 5.695655 14.958055
v -2.500000 5.695655 -14.958055
v -2.500000 0.100000 -2.493009
v -2.500000 0.100000 2.493009
v -2.500000 5.695655 -2.493009
v -2.500000 5.695655 2.493009
v -2.500000 0.100000 19.445471
v -2.500000 0.100000 -19.445471
v -2.500000 6.100000 19.445471
v -2.500000 6.100000 -19.445471
v 18.500000 0.000000 14.958055
v 18.500000 0.000000 -14.958055
v 18.500000 0.100000 14.958055
v 18.500000 0.100000 -14.958055
v 19.500000 0.100000 14.958055
v 19.500000 0.100000 -14.958055
v 13.500000 0.000000 14.958055
v 13.500000 0.000000 -14.958055
v 13.500000 0.100000 14.958055
v 13.500000 0.100000 -14.958055
v 12.500000 0.100000 14.958055
v 12.500000 0.100000 -14.958055
v 16.000000 0.000000 14.958055
v 16.000000 0.000000 -14.958055
v 19.500000 6.100000 14.958055
v 19.500000 6.100000 -14.958055
v 12.500000 5.695655 14.958055
v 12.500000 5.695655 -14.958055
v 18.500000 0.000000 -2.493009
v 18.500000 0.000000 2.493009
v 18.500000 0.100000 -2.493009
v 18.500000 0.100000 2.493009
v 19.500000 0.100000 -2.493009
v 19.500000 0.100000 2.493009
v 16.000000 0.000000 2.493009
v 16.000000 0.000000 -2.493009
v 13.500000 0.000000 -2.493009
v 13.500000 0.000000 2.493009
v 13.500000 0.100000 -2.493009
v 13.500000 0.100000 2.493009
v 12.500000 0.100000 -2.493009
v 12.500000 0.100000 2.493009
v 19.500000 6.100000 -2.493009
v 19.500000 6.100000 2.493009
v 12.500000 5.695655 -2.493009
v 12.500000 5.695655 2.493009
v 18.500000 0.000000 19.445471
v 18.500000 0.000000 -19.445471
v 18.500000 0.100000 19.445471
v 18.500000 0.100000 -19.445471
v 19.500000 0.100000 19.445471
v 19.500000 0.100000 -19.445471
v 13.500000 0.000000 19.445471
v 13.500000 0.000000 -19.445471
v 13.500000 0.100000 19.445471
v 13.500000 0.100000 -19.445471
v 12.500000 0.100000 19.445471
v 12.500000 0.100000 -19.445471
v 16.000000 0.000000 19.445471
v 16.000000 0.000000 -19.445471
v 19.500000 6.100000 19.445471
v 19.500000 6.100000 -19.445471
v 12.500000 6.100000 19.445471
v 12.500000 6.100000 -19.445471
v 2.500000 0.100000 14.958055
v 2.500000 0.100000 -14.958055
v 2.500000 5.695655 14.958055
v 2.500000 5.695655 -14.958055
v 2.500000 0.100000 -2.493009
v 2.500000 0.100000 2.493009
v 2.500000 5.695655 -2.493009
v 2.500000 5.695655 2.493009
v 2.500000 0.100000 19.445471
v 2.500000 0.100000 -19.445471
v 2.500000 6.100000 19.445471
v 2.500000 6.100000 -19.445471
v 0.000000 0.100000 14.958055
v 0.000000 0.100000 -14.958055
v 0.000000 0.100000 -2.493009
v 0.000000 0.100000 2.493009
v 0.000000 0.100000 19.445471
v 0.000000 0.100000 -19.445471
vt 0.000000 0.666667
vt 0.000000 1.000000
vt 0.000000 1.000000
vt 0.000000 0.666667
vt 0.000000 1.000000
vt 0.000000 0.666667
vt 0.500000 0.666667
vt 0.500000 1.000000
vt 0.000000 0.666667
vt 0.000000 0.666667
vt 0.000000 1.000000
vt 0.000000 1.000000
vt 0.000000 0.666667
vt 0.000000 1.000000
vt 0.000000 0.000000
vt 0.000000 0.000000
vt 0.000000 0.000000
vt 0.000000 0.000000
vt 0.000000 1.000000
vt 0.000000 0.666667
vt 0.000000 0.000000
vt 0.000000 0.333333
vt 0.000000 0.333333
vt 0.000000 0.000000
vt 0.000000 0.000000
vt 0.000000 0.000000
vt 0.000000 1.000000
vt 0.000000 1.000000
vt 0.000000 0.000000
vt 0.000000 0.333333
vt 0.500000 0.333333
vt 0.500000 0.000000
vt 0.000000 0.000000
vt 0.000000 0.333333
vt 0.000000 0.333333
vt 0.000000 0.000000
vt 0.000000 0.333333
vt 0.000000 0.000000
vt 0.000000 0.333333
vt 0.000000 1.000000
vt 0.000000 1.000000
vt 0.000000 1.000000
vt 0.000000 1.000000
vt 0.000000 0.666667
vt 0.000000 0.666667
vt 0.000000 0.000000
vt 0.000000 0.000000
vt 0.000000 0.000000
vt 0.000000 0.000000
vt 0.000000 0.333333
vt 0.000000 0.333333
vt 0.000000 0.000000
vt 0.500000 0.000000
vt 0.000000 1.000000
vt 0.500000 1.000000
vt 0.000000 1.000000
vt 0.000000 1.000000
vt 0.000000 0.000000
vt 0.000000 0.000000
vt 0.000000 1.000000
vt 0.000000 0.000000
vt 0.000000 0.000000
vt 0.000000 0.000000
vt 0.000000 0.000000
vt 0.000000 0.000000
vt 0.000000 0.000000
vt 0.000000 0.000000
vt 0.000000 0.000000
vt 0.000000 0.000000
vt 0.000000 0.000000
vt 0.000000 0.000000
vt 0.000000 0.000000
vt 0.000000 0.000000
vt 0.000000 1.000000
vt 0.000000 1.000000
vt 0.000000 0.333333
vt 0.000000 0.666667
vt 0.000000 0.000000
vt 0.000000 1.000000
vt 0.000000 1.000000
vt 0.000000 0.000000
vt 0.000000 0.666667
vt 0.000000 0.666667
vt 0.000000 1.000000
vt 0.000000 1.000000
vt 0.000000 0.666667
vt 0.000000 1.000000
vt 0.500000 1.000000
vt 0.500000 0.666667
vt 0.000000 0.666667
vt 0.000000 1.000000
vt 0.000000 1.000000
vt 0.000000 0.666667
vt 0.000000 1.000000
vt 0.000000 0.666667
vt 0.000000 0.000000
vt 0.000000 0.000000
vt 0.000000 0.000000
vt 0.000000 0.000000
vt 0.000000 0.666667
vt 0.000000 1.000000
vt 0.000000 0.000000
vt 0.000000 0.000000
vt 0.000000 0.333333
vt 0.000000 0.333333
vt 0.000000 0.000000
vt 0.000000 0.000000
vt 0.000000 1.000000
vt 0.000000 1.000000
vt 0.000000 0.000000
vt 0.500000 0.000000
vt 0.500000 0.333333
vt 0.000000 0.333333
vt 0.000000 0.000000
vt 0.000000 0.333333
vt 0.000000 0.333333
vt 0.000000 0.000000
vt 0.000000 0.333333
vt 0.000000 0.000000
vt 0.000000 0.333333
vt 0.000000 1.000000
vt 0.000000 1.000000
vt 0.000000 1.000000
vt 0.000000 0.666667
vt 0.000000 0.666667
vt 0.000000 1.000000
vt 0.000000 0.000000
vt 0.000000 0.000000
vt 0.000000 0.000000
vt 0.000000 0.000000
vt 0.000000 0.333333
vt 0.000000 0.333333
vt 0.500000 0.000000
vt 0.000000 0.000000
vt 0.000000 1.000000
vt 0.000000 1.000000
vt 0.500000 1.000000
vt 0.000000 1.000000
vt 0.000000 0.000000
vt 0.000000 0.000000
vt 0.000000 1.000000
vt 0.000000 0.000000
vt 0.000000 0.000000
vt 0.000000 0.000000
vt 0.000000 0.000000
vt 0.000000 0.000000
vt 0.000000 0.000000
vt 0.000000 0.000000
vt 0.000000 0.000000
vt 0.000000 0.000000
vt 0.000000 0.000000
vt 0.000000 0.000000
vt 0.000000 0.000000
vt 0.000000 0.000000
vt 0.000000 1.000000
vt 0.000000 1.000000
vn 1.0000 0.0000 0.0000
vn 0.0000 1.0000 -0.0000
vn -1.0000 0.0000 0.0000
vn 0.0000 0.0000 1.0000
vn -0.0000 0.0000 -1.0000
usemtl None
s off
f 19/1/1 2/2/1 4/3/1 21/4/1
f 21/4/2 4/3/2 6/5/2 23/6/2
f 19/1/2 26/7/2 14/8/2 2/2/2
f 27/9/3 29/10/3 10/11/3 8/12/3
f 29/10/2 31/13/2 12/14/2 10/11/2
f 27/9/2 8/12/2 14/8/2 26/7/2
f 11/15/4 55/16/4 57/17/4 17/18/4
f 23/6/1 6/5/1 16/19/1 33/20/1
f 5/21/1 24/22/1 34/23/1 15/24/1
f 24/22/1 23/6/1 33/20/1 34/23/1
f 17/18/2 57/17/2 62/25/2 36/26/2
f 8/12/3 10/11/3 46/27/3 44/28/3
f 7/29/2 28/30/2 25/31/2 13/32/2
f 28/30/2 27/9/2 26/7/2 25/31/2
f 9/33/2 11/15/2 32/34/2 30/35/2
f 30/35/2 32/34/2 31/13/2 29/10/2
f 7/29/3 9/33/3 30/35/3 28/30/3
f 28/30/3 30/35/3 29/10/3 27/9/3
f 1/36/2 13/32/2 25/31/2 20/37/2
f 20/37/2 25/31/2 26/7/2 19/1/2
f 3/38/2 22/39/2 24/22/2 5/21/2
f 22/39/2 21/4/2 23/6/2 24/22/2
f 1/36/1 20/37/1 22/39/1 3/38/1
f 20/37/1 19/1/1 21/4/1 22/39/1
f 6/5/2 4/3/2 40/40/2 42/41/2
f 56/42/1 58/43/1 61/44/1 59/45/1
f 9/33/3 7/29/3 43/46/3 45/47/3
f 3/38/2 5/21/2 41/48/2 39/49/2
f 60/50/1 62/51/1 57/17/1 55/16/1
f 13/32/2 1/36/2 37/52/2 49/53/2
f 16/19/1 6/5/1 42/41/1 52/54/1
f 2/2/2 14/8/2 50/55/2 38/56/2
f 10/11/2 12/14/2 48/57/2 46/27/2
f 5/21/1 15/24/1 51/58/1 41/48/1
f 11/15/2 9/33/2 45/47/2 47/59/2
f 4/3/1 2/2/1 38/56/1 40/40/1
f 7/29/2 13/32/2 49/53/2 43/46/2
f 14/8/2 8/12/2 44/28/2 50/55/2
f 1/36/1 3/38/1 39/49/1 37/52/1
f 38/56/4 50/55/4 44/28/4 46/27/4 48/57/4 54/60/4 52/54/4 42/41/4 40/40/4
f 37/52/5 39/49/5 41/48/5 51/58/5 53/61/5 47/59/5 45/47/5 43/46/5 49/53/5
f 18/62/5 58/63/5 56/64/5 12/65/5
f 12/14/2 31/13/2 59/45/2 56/42/2
f 32/34/2 11/15/2 55/16/2 60/50/2
f 31/66/4 59/67/4 61/68/4 35/69/4
f 31/13/2 32/34/2 60/50/2 59/45/2
f 36/26/5 62/25/5 60/70/5 32/71/5
f 47/59/5 53/61/5 65/72/5 63/73/5
f 48/57/2 12/14/2 56/42/2 64/74/2
f 35/69/2 61/68/2 58/63/2 18/62/2
f 11/15/2 47/59/2 63/73/2 55/16/2
f 54/60/4 48/57/4 64/74/4 66/75/4
f 59/45/2 60/50/2 136/76/2 135/77/2
f 60/50/2 55/16/2 133/78/2 136/76/2
f 64/74/2 56/42/2 134/79/2 138/80/2
f 56/42/2 59/45/2 135/77/2 134/79/2
f 55/16/2 63/73/2 137/81/2 133/78/2
f 32/71/3 11/15/3 17/18/3 36/26/3
f 18/62/3 12/65/3 31/66/3 35/69/3
f 85/82/3 87/83/3 70/84/3 68/85/3
f 87/83/2 89/86/2 72/87/2 70/84/2
f 85/82/2 68/85/2 80/88/2 92/89/2
f 93/90/1 74/91/1 76/92/1 95/93/1
f 95/93/2 76/92/2 78/94/2 97/95/2
f 93/90/2 92/89/2 80/88/2 74/91/2
f 77/96/4 83/97/4 123/98/4 121/99/4
f 89/86/3 99/100/3 82/101/3 72/87/3
f 71/102/3 81/103/3 100/104/3 90/105/3
f 90/105/3 100/104/3 99/100/3 89/86/3
f 83/97/2 102/106/2 128/107/2 123/98/2
f 74/91/1 110/108/1 112/109/1 76/92/1
f 73/110/2 79/111/2 91/112/2 94/113/2
f 94/113/2 91/112/2 92/89/2 93/90/2
f 75/114/2 96/115/2 98/116/2 77/96/2
f 96/115/2 95/93/2 97/95/2 98/116/2
f 73/110/1 94/113/1 96/115/1 75/114/1
f 94/113/1 93/90/1 95/93/1 96/115/1
f 67/117/2 86/118/2 91/112/2 79/111/2
f 86/118/2 85/82/2 92/89/2 91/112/2
f 69/119/2 71/102/2 90/105/2 88/120/2
f 88/120/2 90/105/2 89/86/2 87/83/2
f 67/117/3 69/119/3 88/120/3 86/118/3
f 86/118/3 88/120/3 87/83/3 85/82/3
f 72/87/2 108/121/2 106/122/2 70/84/2
f 122/123/3 125/124/3 127/125/3 124/126/3
f 75/114/1 111/127/1 109/128/1 73/110/1
f 69/119/2 105/129/2 107/130/2 71/102/2
f 126/131/3 121/99/3 123/98/3 128/132/3
f 79/111/2 115/133/2 103/134/2 67/117/2
f 82/101/3 118/135/3 108/121/3 72/87/3
f 68/85/2 104/136/2 116/137/2 80/88/2
f 76/92/2 112/109/2 114/138/2 78/94/2
f 71/102/3 107/130/3 117/139/3 81/103/3
f 77/96/2 113/140/2 111/127/2 75/114/2
f 70/84/3 106/122/3 104/136/3 68/85/3
f 73/110/2 109/128/2 115/133/2 79/111/2
f 80/88/2 116/137/2 110/108/2 74/91/2
f 67/117/3 103/134/3 105/129/3 69/119/3
f 104/136/4 106/122/4 108/121/4 118/135/4 120/141/4 114/138/4 112/109/4 110/108/4 116/137/4
f 103/134/5 115/133/5 109/128/5 111/127/5 113/140/5 119/142/5 117/139/5 107/130/5 105/129/5
f 84/143/5 78/144/5 122/145/5 124/146/5
f 78/94/2 122/123/2 125/124/2 97/95/2
f 98/116/2 126/131/2 121/99/2 77/96/2
f 97/147/4 101/148/4 127/149/4 125/150/4
f 97/95/2 125/124/2 126/131/2 98/116/2
f 102/106/5 98/151/5 126/152/5 128/107/5
f 113/140/5 129/153/5 131/154/5 119/142/5
f 114/138/2 130/155/2 122/123/2 78/94/2
f 101/148/2 84/143/2 124/146/2 127/149/2
f 77/96/2 121/99/2 129/153/2 113/140/2
f 120/141/4 132/156/4 130/155/4 114/138/4
f 125/124/2 135/77/2 136/76/2 126/131/2
f 126/131/2 136/76/2 133/78/2 121/99/2
f 130/155/2 138/80/2 134/79/2 122/123/2
f 122/123/2 134/79/2 135/77/2 125/124/2
f 121/99/2 133/78/2 137/81/2 129/153/2
f 98/151/1 102/106/1 83/97/1 77/96/1
f 84/143/1 101/148/1 97/147/1 78/144/1
f 65/72/5 131/154/5 129/153/5 63/73/5
f 64/74/4 130/155/4 132/156/4 66/75/4
